<?xml version="1.0" encoding="UTF-8" standalone="no"?>
<!DOCTYPE svg PUBLIC "-//W3C//DTD SVG 1.1//EN" "http://www.w3.org/Graphics/SVG/1.1/DTD/svg11.dtd">
<svg width="100%" height="100%" viewBox="0 0 290 290" version="1.1" xmlns="http://www.w3.org/2000/svg" xmlns:xlink="http://www.w3.org/1999/xlink" xml:space="preserve" xmlns:serif="http://www.serif.com/" style="fill-rule:evenodd;clip-rule:evenodd;stroke-miterlimit:2;">
    <g transform="matrix(1,0,0,1,14.602,11.9395)">
        <g transform="matrix(4.16667,0,0,4.16667,0,0)">
            <path d="M59.523,55.439C59.523,58.04 57.397,60.165 54.8,60.165L7.557,60.165C4.959,60.165 2.834,58.04 2.834,55.439L2.834,8.195C2.834,5.598 4.959,3.473 7.557,3.473L54.8,3.473C57.397,3.473 59.523,5.598 59.523,8.195L59.523,55.439Z" style="fill:none;stroke:white;stroke-width:5.67px;"/>
            <path d="M59.523,55.439C59.523,58.04 57.398,60.165 54.801,60.165L7.558,60.165C4.958,60.165 2.833,58.04 2.833,55.439L2.833,8.195C2.833,5.598 4.958,3.473 7.558,3.473L54.801,3.473C57.398,3.473 59.523,5.598 59.523,8.195L59.523,55.439Z" style="fill:rgb(255,242,0);fill-rule:nonzero;"/>
            <path d="M59.523,55.439C59.523,58.04 57.398,60.165 54.801,60.165L7.558,60.165C4.958,60.165 2.833,58.04 2.833,55.439L2.833,8.195C2.833,5.598 4.958,3.473 7.558,3.473L54.801,3.473C57.398,3.473 59.523,5.598 59.523,8.195L59.523,55.439Z" style="fill:none;stroke:rgb(35,31,32);stroke-width:0.42px;"/>
            <path d="M22.975,25.141L19.149,25.141L19.149,30.89L22.975,30.89C24.83,30.89 26.012,29.737 26.012,28.028C26.012,26.322 24.83,25.141 22.975,25.141ZM23.183,34.572L19.149,34.572L19.149,42.462L15.051,42.462L15.051,21.491L23.183,21.491C27.512,21.491 30.105,24.467 30.105,28.028C30.105,31.593 27.512,34.572 23.183,34.572Z" style="fill:rgb(35,31,32);fill-rule:nonzero;"/>
            <path d="M45.304,40.253C43.622,41.992 41.62,42.638 39.386,42.638C37.084,42.638 35.201,41.814 33.727,40.339C31.606,38.216 31.666,35.599 31.666,31.975C31.666,28.355 31.606,25.733 33.727,23.61C35.201,22.138 37.023,21.311 39.386,21.311C44.242,21.311 46.716,24.493 47.276,28.028L43.151,28.028C42.685,26.057 41.471,24.965 39.386,24.965C38.263,24.965 37.35,25.406 36.765,26.085C35.966,26.967 35.758,27.943 35.758,31.975C35.758,36.009 35.966,37.013 36.765,37.894C37.35,38.576 38.263,38.986 39.386,38.986C40.621,38.986 41.62,38.542 42.302,37.806C42.975,37.042 43.243,36.099 43.243,35.011L43.243,34.216L39.386,34.216L39.386,30.798L47.307,30.798L47.307,33.857C47.307,36.896 46.774,38.716 45.304,40.253Z" style="fill:rgb(35,31,32);fill-rule:nonzero;"/>
            <path d="M51.374,17.331L51.374,46.277L10.987,46.277C10.987,45.011 10.983,18.595 10.983,17.331L51.374,17.331ZM52.731,15.971L9.623,15.971L9.63,47.636L52.731,47.636L52.731,15.971Z" style="fill:rgb(35,31,32);fill-rule:nonzero;"/>
        </g>
    </g>
</svg>
