<?xml version="1.0" encoding="UTF-8" standalone="no"?>
<!DOCTYPE svg PUBLIC "-//W3C//DTD SVG 1.1//EN" "http://www.w3.org/Graphics/SVG/1.1/DTD/svg11.dtd">
<svg width="100%" height="100%" viewBox="0 0 289 289" version="1.1" xmlns="http://www.w3.org/2000/svg" xmlns:xlink="http://www.w3.org/1999/xlink" xml:space="preserve" xmlns:serif="http://www.serif.com/" style="fill-rule:evenodd;clip-rule:evenodd;stroke-miterlimit:2;">
    <g transform="matrix(1,0,0,1,14.5907,11.7449)">
        <g transform="matrix(4.16667,0,0,4.16667,0,0)">
            <path d="M59.48,55.444C59.48,58.041 57.356,60.167 54.76,60.167L7.552,60.167C4.956,60.167 2.832,58.041 2.832,55.444L2.832,8.235C2.832,5.639 4.956,3.515 7.552,3.515L54.76,3.515C57.356,3.515 59.48,5.639 59.48,8.235L59.48,55.444Z" style="fill:none;stroke:white;stroke-width:5.67px;"/>
            <path d="M59.48,55.449C59.48,58.044 57.356,60.17 54.76,60.17L7.555,60.17C4.956,60.17 2.832,58.044 2.832,55.449L2.832,8.236C2.832,5.641 4.956,3.515 7.555,3.515L54.76,3.515C57.356,3.515 59.48,5.641 59.48,8.236L59.48,55.449Z" style="fill:rgb(237,28,36);fill-rule:nonzero;"/>
            <path d="M59.48,55.449C59.48,58.044 57.356,60.17 54.76,60.17L7.555,60.17C4.956,60.17 2.832,58.044 2.832,55.449L2.832,8.236C2.832,5.641 4.956,3.515 7.555,3.515L54.76,3.515C57.356,3.515 59.48,5.641 59.48,8.236L59.48,55.449Z" style="fill:none;stroke:rgb(35,31,32);stroke-width:0.42px;"/>
            <path d="M2.786,47.543L2.786,55.449C2.786,58.044 4.91,60.17 7.508,60.17L54.714,60.17C57.31,60.17 59.434,58.044 59.434,55.449L59.434,47.543L2.786,47.543Z" style="fill:rgb(35,31,32);fill-rule:nonzero;"/>
            <path d="M2.786,47.543L2.786,55.449C2.786,58.044 4.91,60.17 7.508,60.17L54.714,60.17C57.31,60.17 59.434,58.044 59.434,55.449L59.434,47.543L2.786,47.543Z" style="fill:none;stroke:rgb(35,31,32);stroke-width:0.42px;"/>
            <path d="M9.412,50.976L7.949,50.976L7.949,53.019L9.412,53.019C10.073,53.019 10.522,52.642 10.522,52.002C10.522,51.361 10.073,50.976 9.412,50.976ZM10.557,56.609L9.185,53.862L7.949,53.862L7.949,56.609L6.959,56.609L6.959,50.085L9.487,50.085C10.723,50.085 11.51,50.882 11.51,51.993C11.51,52.925 10.943,53.52 10.209,53.722L11.712,56.609L10.557,56.609Z" style="fill:white;fill-rule:nonzero;"/>
            <path d="M12.73,56.609L12.73,50.085L16.897,50.085L16.897,50.976L13.719,50.976L13.719,52.881L16.429,52.881L16.429,53.761L13.719,53.761L13.719,55.72L16.897,55.72L16.897,56.609L12.73,56.609Z" style="fill:white;fill-rule:nonzero;"/>
            <path d="M19.754,56.663C18.774,56.663 18.069,56.435 17.447,55.803L18.107,55.153C18.582,55.628 19.106,55.774 19.772,55.774C20.625,55.774 21.119,55.409 21.119,54.776C21.119,54.493 21.038,54.255 20.862,54.101C20.699,53.945 20.534,53.878 20.15,53.823L19.379,53.715C18.849,53.642 18.426,53.458 18.143,53.193C17.822,52.891 17.666,52.476 17.666,51.946C17.666,50.812 18.491,50.033 19.847,50.033C20.709,50.033 21.311,50.251 21.871,50.775L21.239,51.398C20.836,51.012 20.368,50.892 19.818,50.892C19.05,50.892 18.627,51.331 18.627,51.91C18.627,52.149 18.702,52.359 18.875,52.515C19.041,52.662 19.306,52.769 19.608,52.818L20.352,52.925C20.955,53.019 21.295,53.165 21.568,53.413C21.926,53.722 22.1,54.19 22.1,54.749C22.1,55.95 21.119,56.663 19.754,56.663Z" style="fill:white;fill-rule:nonzero;"/>
            <path d="M25.406,50.976L25.406,56.609L24.418,56.609L24.418,50.976L22.622,50.976L22.622,50.085L27.202,50.085L27.202,50.976L25.406,50.976Z" style="fill:white;fill-rule:nonzero;"/>
            <path d="M30.556,50.976L29.088,50.976L29.088,53.019L30.556,53.019C31.214,53.019 31.663,52.642 31.663,52.002C31.663,51.361 31.214,50.976 30.556,50.976ZM31.7,56.609L30.326,53.862L29.088,53.862L29.088,56.609L28.1,56.609L28.1,50.085L30.627,50.085C31.864,50.085 32.653,50.882 32.653,51.993C32.653,52.925 32.084,53.52 31.353,53.722L32.854,56.609L31.7,56.609Z" style="fill:white;fill-rule:nonzero;"/>
            <rect x="33.87" y="50.085" width="0.988" height="6.524" style="fill:white;fill-rule:nonzero;"/>
            <path d="M38.44,56.663C37.764,56.663 37.177,56.415 36.728,55.966C36.085,55.326 36.095,54.603 36.095,53.349C36.095,52.092 36.085,51.371 36.728,50.729C37.177,50.281 37.764,50.033 38.44,50.033C39.641,50.033 40.538,50.736 40.766,52.037L39.759,52.037C39.605,51.378 39.164,50.921 38.44,50.921C38.057,50.921 37.708,51.068 37.48,51.315C37.158,51.663 37.084,52.037 37.084,53.349C37.084,54.659 37.158,55.033 37.48,55.38C37.708,55.628 38.057,55.774 38.44,55.774C39.164,55.774 39.613,55.316 39.769,54.659L40.766,54.659C40.548,55.956 39.621,56.663 38.44,56.663Z" style="fill:white;fill-rule:nonzero;"/>
            <path d="M43.882,50.976L43.882,56.609L42.894,56.609L42.894,50.976L41.098,50.976L41.098,50.085L45.678,50.085L45.678,50.976L43.882,50.976Z" style="fill:white;fill-rule:nonzero;"/>
            <path d="M46.575,56.609L46.575,50.085L50.742,50.085L50.742,50.976L47.564,50.976L47.564,52.881L50.273,52.881L50.273,53.761L47.564,53.761L47.564,55.72L50.742,55.72L50.742,56.609L46.575,56.609Z" style="fill:white;fill-rule:nonzero;"/>
            <path d="M55.166,51.415C54.893,51.115 54.525,50.976 54.059,50.976L52.858,50.976L52.858,55.72L54.059,55.72C54.525,55.72 54.893,55.584 55.166,55.282C55.504,54.906 55.514,54.2 55.514,53.302C55.514,52.405 55.504,51.789 55.166,51.415ZM55.845,55.996C55.433,56.406 54.838,56.609 54.161,56.609L51.869,56.609L51.869,50.085L54.161,50.085C54.838,50.085 55.433,50.287 55.845,50.7C56.549,51.408 56.503,52.359 56.503,53.302C56.503,54.247 56.549,55.291 55.845,55.996Z" style="fill:white;fill-rule:nonzero;"/>
            <path d="M42.457,29.827L42.457,21.529L40.711,23.067L40.711,21.991L42.457,20.481L43.404,20.481L43.404,29.827L42.457,29.827Z" style="fill:white;fill-rule:nonzero;"/>
            <path d="M49.402,29.225C48.97,29.658 48.364,29.919 47.538,29.919C46.725,29.919 46.068,29.658 45.661,29.251C45.255,28.828 45.057,28.291 45.004,27.622L45.949,27.622C46.068,28.555 46.553,29.08 47.538,29.08C47.997,29.08 48.418,28.922 48.693,28.646C49.18,28.162 49.205,27.413 49.205,26.743C49.205,25.601 48.982,24.473 47.629,24.473C46.816,24.473 46.267,24.84 46.081,25.392L45.229,25.392L45.229,20.481L49.955,20.481L49.955,21.321L46.081,21.321L46.081,24.289C46.448,23.881 47.027,23.645 47.761,23.645C48.457,23.645 49.009,23.868 49.376,24.235C50.06,24.918 50.15,25.862 50.15,26.743C50.15,27.675 50.072,28.555 49.402,29.225Z" style="fill:white;fill-rule:nonzero;"/>
            <path d="M54.548,26.756L54.548,29.066L53.67,29.066L53.67,26.756L51.36,26.756L51.36,25.874L53.67,25.874L53.67,23.591L54.548,23.591L54.548,25.874L56.846,25.874L56.846,26.756L54.548,26.756Z" style="fill:white;fill-rule:nonzero;"/>
            <path d="M20.226,31.788L20.226,24.611L17.871,29.28L16.247,29.28L13.878,24.611L13.878,31.788L11.47,31.788L11.47,19.468L13.839,19.468L17.06,26.133L20.26,19.468L22.632,19.468L22.632,31.788L20.226,31.788Z" style="fill:white;fill-rule:nonzero;"/>
            <path d="M28.838,23.103L27.283,27.587L30.346,27.587L28.838,23.103ZM31.712,31.788L30.985,29.609L26.608,29.609L25.865,31.788L23.356,31.788L27.838,19.468L29.723,19.468L34.222,31.788L31.712,31.788Z" style="fill:white;fill-rule:nonzero;"/>
            <path d="M31.118,13.589C31.339,13.947 38.31,25.128 38.558,25.528C38.31,25.93 31.339,37.11 31.118,37.467L14.005,37.467C13.784,37.11 6.82,25.93 6.566,25.528C6.82,25.128 13.784,13.947 14.005,13.589L31.118,13.589ZM31.561,12.793L13.566,12.793L5.627,25.528L13.566,38.268L31.561,38.268L39.497,25.528L31.561,12.793Z" style="fill:white;fill-rule:nonzero;"/>
        </g>
    </g>
</svg>
