<?xml version="1.0" encoding="UTF-8" standalone="no"?>
<!DOCTYPE svg PUBLIC "-//W3C//DTD SVG 1.1//EN" "http://www.w3.org/Graphics/SVG/1.1/DTD/svg11.dtd">
<svg width="100%" height="100%" viewBox="0 0 290 290" version="1.1" xmlns="http://www.w3.org/2000/svg" xmlns:xlink="http://www.w3.org/1999/xlink" xml:space="preserve" xmlns:serif="http://www.serif.com/" style="fill-rule:evenodd;clip-rule:evenodd;stroke-miterlimit:2;">
    <g transform="matrix(1,0,0,1,14.602,11.9436)">
        <g transform="matrix(4.16667,0,0,4.16667,0,0)">
            <path d="M59.523,55.439C59.523,58.039 57.397,60.165 54.8,60.165L7.557,60.165C4.959,60.165 2.834,58.039 2.834,55.439L2.834,8.195C2.834,5.597 4.959,3.472 7.557,3.472L54.8,3.472C57.397,3.472 59.523,5.597 59.523,8.195L59.523,55.439Z" style="fill:none;stroke:white;stroke-width:5.67px;"/>
            <path d="M59.523,55.441C59.523,58.039 57.398,60.164 54.801,60.164L7.558,60.164C4.96,60.164 2.834,58.039 2.834,55.441L2.834,8.195C2.834,5.597 4.96,3.472 7.558,3.472L54.801,3.472C57.398,3.472 59.523,5.597 59.523,8.195L59.523,55.441Z" style="fill:rgb(35,31,32);fill-rule:nonzero;"/>
            <path d="M59.523,55.441C59.523,58.039 57.398,60.164 54.801,60.164L7.558,60.164C4.96,60.164 2.834,58.039 2.834,55.441L2.834,8.195C2.834,5.597 4.96,3.472 7.558,3.472L54.801,3.472C57.398,3.472 59.523,5.597 59.523,8.195L59.523,55.441Z" style="fill:none;stroke:rgb(35,31,32);stroke-width:0.42px;"/>
            <path d="M2.789,47.527L2.789,55.441C2.789,58.039 4.914,60.164 7.512,60.164L54.755,60.164C57.353,60.164 59.479,58.039 59.479,55.441L59.479,47.527L2.789,47.527Z" style="fill:rgb(35,31,32);fill-rule:nonzero;"/>
            <path d="M2.789,47.527L2.789,55.441C2.789,58.039 4.914,60.164 7.512,60.164L54.755,60.164C57.353,60.164 59.479,58.039 59.479,55.441L59.479,47.527L2.789,47.527Z" style="fill:none;stroke:rgb(35,31,32);stroke-width:0.42px;"/>
            <path d="M9.42,50.962L7.953,50.962L7.953,53.005L9.42,53.005C10.08,53.005 10.529,52.63 10.529,51.988C10.529,51.347 10.08,50.962 9.42,50.962ZM10.565,56.597L9.191,53.849L7.953,53.849L7.953,56.597L6.964,56.597L6.964,50.072L9.493,50.072C10.731,50.072 11.52,50.869 11.52,51.978C11.52,52.914 10.949,53.509 10.217,53.71L11.721,56.597L10.565,56.597Z" style="fill:white;fill-rule:nonzero;"/>
            <path d="M12.738,56.597L12.738,50.072L16.91,50.072L16.91,50.962L13.728,50.962L13.728,52.867L16.441,52.867L16.441,53.748L13.728,53.748L13.728,55.708L16.91,55.708L16.91,56.597L12.738,56.597Z" style="fill:white;fill-rule:nonzero;"/>
            <path d="M19.768,56.654C18.788,56.654 18.082,56.425 17.46,55.792L18.119,55.142C18.596,55.619 19.118,55.765 19.787,55.765C20.641,55.765 21.135,55.396 21.135,54.765C21.135,54.482 21.052,54.244 20.878,54.087C20.714,53.931 20.549,53.867 20.163,53.812L19.394,53.703C18.861,53.628 18.439,53.445 18.156,53.179C17.834,52.876 17.678,52.464 17.678,51.933C17.678,50.796 18.505,50.017 19.86,50.017C20.722,50.017 21.327,50.238 21.887,50.759L21.254,51.382C20.852,50.999 20.383,50.878 19.833,50.878C19.064,50.878 18.642,51.318 18.642,51.898C18.642,52.134 18.715,52.347 18.889,52.501C19.055,52.648 19.318,52.757 19.621,52.804L20.365,52.914C20.969,53.005 21.31,53.152 21.584,53.4C21.942,53.71 22.115,54.179 22.115,54.738C22.115,55.939 21.135,56.654 19.768,56.654Z" style="fill:white;fill-rule:nonzero;"/>
            <path d="M25.426,50.962L25.426,56.597L24.436,56.597L24.436,50.962L22.639,50.962L22.639,50.072L27.223,50.072L27.223,50.962L25.426,50.962Z" style="fill:white;fill-rule:nonzero;"/>
            <path d="M30.577,50.962L29.11,50.962L29.11,53.005L30.577,53.005C31.236,53.005 31.686,52.63 31.686,51.988C31.686,51.347 31.236,50.962 30.577,50.962ZM31.723,56.597L30.348,53.849L29.11,53.849L29.11,56.597L28.121,56.597L28.121,50.072L30.65,50.072C31.887,50.072 32.677,50.869 32.677,51.978C32.677,52.914 32.108,53.509 31.374,53.71L32.877,56.597L31.723,56.597Z" style="fill:white;fill-rule:nonzero;"/>
            <rect x="33.896" y="50.072" width="0.989" height="6.525" style="fill:white;fill-rule:nonzero;"/>
            <path d="M38.469,56.654C37.79,56.654 37.203,56.406 36.754,55.956C36.112,55.316 36.122,54.591 36.122,53.335C36.122,52.08 36.112,51.355 36.754,50.714C37.203,50.265 37.79,50.017 38.469,50.017C39.67,50.017 40.568,50.722 40.797,52.025L39.787,52.025C39.633,51.363 39.191,50.906 38.469,50.906C38.083,50.906 37.735,51.052 37.506,51.3C37.185,51.648 37.111,52.025 37.111,53.335C37.111,54.646 37.185,55.023 37.506,55.371C37.735,55.619 38.083,55.765 38.469,55.765C39.191,55.765 39.641,55.306 39.797,54.646L40.797,54.646C40.577,55.947 39.65,56.654 38.469,56.654Z" style="fill:white;fill-rule:nonzero;"/>
            <path d="M43.913,50.962L43.913,56.597L42.924,56.597L42.924,50.962L41.127,50.962L41.127,50.072L45.71,50.072L45.71,50.962L43.913,50.962Z" style="fill:white;fill-rule:nonzero;"/>
            <path d="M46.608,56.597L46.608,50.072L50.78,50.072L50.78,50.962L47.599,50.962L47.599,52.867L50.312,52.867L50.312,53.748L47.599,53.748L47.599,55.708L50.78,55.708L50.78,56.597L46.608,56.597Z" style="fill:white;fill-rule:nonzero;"/>
            <path d="M55.207,51.402C54.933,51.099 54.566,50.962 54.098,50.962L52.897,50.962L52.897,55.708L54.098,55.708C54.566,55.708 54.933,55.572 55.207,55.269C55.546,54.894 55.556,54.189 55.556,53.29C55.556,52.392 55.546,51.777 55.207,51.402ZM55.885,55.984C55.473,56.396 54.877,56.597 54.198,56.597L51.906,56.597L51.906,50.072L54.198,50.072C54.877,50.072 55.473,50.273 55.885,50.687C56.591,51.392 56.545,52.347 56.545,53.29C56.545,54.234 56.591,55.279 55.885,55.984Z" style="fill:white;fill-rule:nonzero;"/>
            <path d="M2.736,47.527L59.576,47.527" style="fill:none;stroke:white;stroke-width:0.67px;"/>
            <path d="M39.538,32.076L39.538,22.242L37.47,24.064L37.47,22.787L39.538,20.999L40.658,20.999L40.658,32.076L39.538,32.076Z" style="fill:white;fill-rule:nonzero;"/>
            <path d="M45.528,21.9C44.392,21.9 43.598,22.742 43.598,23.892C43.598,25.058 44.392,25.869 45.528,25.869C46.664,25.869 47.458,25.058 47.458,23.892C47.458,22.742 46.664,21.9 45.528,21.9ZM45.528,26.847C44.314,26.847 43.38,27.781 43.38,29.009C43.38,30.24 44.314,31.173 45.528,31.173C46.742,31.173 47.675,30.24 47.675,29.009C47.675,27.781 46.742,26.847 45.528,26.847ZM45.528,32.169C43.692,32.169 42.26,30.894 42.26,29.027C42.26,27.734 42.992,26.863 43.927,26.333C43.054,25.835 42.478,25.029 42.478,23.876C42.478,22.15 43.771,20.904 45.528,20.904C47.286,20.904 48.578,22.15 48.578,23.876C48.578,25.029 48.017,25.835 47.146,26.333C48.078,26.863 48.795,27.734 48.795,29.027C48.795,30.894 47.364,32.169 45.528,32.169Z" style="fill:white;fill-rule:nonzero;"/>
            <path d="M54.179,28.433L54.179,31.173L53.136,31.173L53.136,28.433L50.397,28.433L50.397,27.392L53.136,27.392L53.136,24.683L54.179,24.683L54.179,27.392L56.901,27.392L56.901,28.433L54.179,28.433Z" style="fill:white;fill-rule:nonzero;"/>
            <path d="M21.281,22.404L18.513,22.404L18.513,26.374L21.281,26.374C22.572,26.374 23.419,25.552 23.419,24.39C23.419,23.226 22.572,22.404 21.281,22.404ZM23.566,34.835L20.626,28.833L18.513,28.833L18.513,34.835L15.575,34.835L15.575,19.783L21.472,19.783C24.538,19.783 26.355,21.874 26.355,24.39C26.355,26.505 25.067,27.816 23.609,28.345L26.969,34.835L23.566,34.835Z" style="fill:white;fill-rule:nonzero;"/>
            <path d="M20.995,12.976C21.635,13.619 34.563,26.542 35.204,27.185C34.563,27.824 21.638,40.748 20.997,41.39C20.356,40.748 7.431,27.824 6.788,27.185C7.431,26.542 20.354,13.619 20.995,12.976ZM20.651,11.943L5.411,27.185L20.997,42.769L36.581,27.185L20.995,11.601L20.651,11.943Z" style="fill:white;fill-rule:nonzero;"/>
        </g>
    </g>
</svg>
