<?xml version="1.0" encoding="UTF-8" standalone="no"?>
<!DOCTYPE svg PUBLIC "-//W3C//DTD SVG 1.1//EN" "http://www.w3.org/Graphics/SVG/1.1/DTD/svg11.dtd">
<svg width="100%" height="100%" viewBox="0 0 290 290" version="1.1" xmlns="http://www.w3.org/2000/svg" xmlns:xlink="http://www.w3.org/1999/xlink" xml:space="preserve" xmlns:serif="http://www.serif.com/" style="fill-rule:evenodd;clip-rule:evenodd;stroke-miterlimit:2;">
    <g transform="matrix(1,0,0,1,14.602,11.9436)">
        <g transform="matrix(4.16667,0,0,4.16667,0,0)">
            <path d="M59.523,55.439C59.523,58.039 57.397,60.165 54.8,60.165L7.557,60.165C4.959,60.165 2.834,58.039 2.834,55.439L2.834,8.194C2.834,5.597 4.959,3.472 7.557,3.472L54.8,3.472C57.397,3.472 59.523,5.597 59.523,8.194L59.523,55.439Z" style="fill:none;stroke:white;stroke-width:5.67px;"/>
            <path d="M59.523,55.439C59.523,58.039 57.397,60.165 54.8,60.165L7.557,60.165C4.959,60.165 2.834,58.039 2.834,55.439L2.834,8.194C2.834,5.597 4.959,3.472 7.557,3.472L54.8,3.472C57.397,3.472 59.523,5.597 59.523,8.194L59.523,55.439Z" style="fill:rgb(11,177,75);fill-rule:nonzero;"/>
            <path d="M36.189,41.919C34.741,43.415 33.016,43.972 31.092,43.972C29.113,43.972 27.488,43.263 26.223,41.996C24.393,40.165 24.445,37.91 24.445,34.79C24.445,31.673 24.393,29.409 26.223,27.586C27.488,26.318 29.058,25.605 31.092,25.605C35.278,25.605 37.407,28.346 37.889,31.392L34.338,31.392C33.931,29.69 32.893,28.751 31.092,28.751C30.129,28.751 29.341,29.132 28.833,29.717C28.149,30.478 27.971,31.314 27.971,34.79C27.971,38.265 28.149,39.126 28.833,39.888C29.341,40.472 30.129,40.826 31.092,40.826C32.156,40.826 33.016,40.445 33.602,39.814C34.185,39.154 34.412,38.343 34.412,37.402L34.412,36.718L31.092,36.718L31.092,33.775L37.915,33.775L37.915,36.415C37.915,39.027 37.459,40.599 36.189,41.919Z" style="fill:white;fill-rule:nonzero;"/>
            <path d="M31.177,15.85C32.105,17.417 47.788,43.96 48.742,45.58L13.608,45.58C14.568,43.96 30.249,17.417 31.177,15.85ZM30.672,14.405L11.561,46.748L50.796,46.748L31.177,13.555L30.672,14.405Z" style="fill:white;fill-rule:nonzero;"/>
        </g>
    </g>
</svg>
