<?xml version="1.0" encoding="UTF-8" standalone="no"?>
<!DOCTYPE svg PUBLIC "-//W3C//DTD SVG 1.1//EN" "http://www.w3.org/Graphics/SVG/1.1/DTD/svg11.dtd">
<svg width="100%" height="100%" viewBox="0 0 290 290" version="1.1" xmlns="http://www.w3.org/2000/svg" xmlns:xlink="http://www.w3.org/1999/xlink" xml:space="preserve" xmlns:serif="http://www.serif.com/" style="fill-rule:evenodd;clip-rule:evenodd;stroke-miterlimit:2;">
    <g transform="matrix(1,0,0,1,14.602,11.9436)">
        <g transform="matrix(4.16667,0,0,4.16667,0,0)">
            <path d="M59.523,55.439C59.523,58.04 57.397,60.165 54.8,60.165L7.557,60.165C4.959,60.165 2.834,58.04 2.834,55.439L2.834,8.195C2.834,5.597 4.959,3.472 7.557,3.472L54.8,3.472C57.397,3.472 59.523,5.597 59.523,8.195L59.523,55.439Z" style="fill:none;stroke:white;stroke-width:5.67px;"/>
            <path d="M59.523,55.439C59.523,58.04 57.397,60.165 54.8,60.165L7.559,60.165C4.958,60.165 2.832,58.04 2.832,55.439L2.832,8.196C2.832,5.598 4.958,3.472 7.559,3.472L54.8,3.472C57.397,3.472 59.523,5.598 59.523,8.196L59.523,55.439Z" style="fill:rgb(0,174,239);fill-rule:nonzero;"/>
            <path d="M59.523,55.439C59.523,58.04 57.397,60.165 54.8,60.165L7.559,60.165C4.958,60.165 2.832,58.04 2.832,55.439L2.832,8.196C2.832,5.598 4.958,3.472 7.559,3.472L54.8,3.472C57.397,3.472 59.523,5.598 59.523,8.196L59.523,55.439Z" style="fill:none;stroke:rgb(35,31,32);stroke-width:0.42px;"/>
            <path d="M36.301,41.915L36.301,30.335L32.503,37.869L29.883,37.869L26.058,30.335L26.058,41.915L22.181,41.915L22.181,22.046L26.004,22.046L31.193,32.789L36.355,22.046L40.183,22.046L40.183,41.915L36.301,41.915Z" style="fill:white;fill-rule:nonzero;"/>
            <path d="M16.047,31.814C16.047,23.474 22.834,16.685 31.18,16.685C39.52,16.685 46.311,23.474 46.311,31.814C46.311,40.16 39.52,46.946 31.18,46.946C22.834,46.946 16.047,40.16 16.047,31.814ZM14.763,31.814C14.763,40.87 22.127,48.231 31.18,48.231C40.23,48.231 47.595,40.87 47.595,31.814C47.595,22.766 40.23,15.406 31.18,15.406C22.127,15.406 14.763,22.766 14.763,31.814Z" style="fill:white;fill-rule:nonzero;"/>
        </g>
    </g>
</svg>
